<svg xmlns="http://www.w3.org/2000/svg" xmlns:xlink="http://www.w3.org/1999/xlink" version="1.1" id="outlines" x="0px" y="0px" viewBox="-5 0 85 91.2" style="enable-background:new -5 0 85 91.2;" xml:space="preserve">
<style type="text/css">.st0{fill:#FF6A00;}</style>
<g>
	<g>
		<path class="st0" d="M15,32.6h2.6c1.1,0,2-0.9,2-2v-9.1c0-1.1,0.9-2,2-2h15.6c1.1,0,2-0.9,2-2v-2.6c0-1.1-0.9-2-2-2H21.5    c-1.1,0-2,0.9-2,2v2.6c0,1.1-0.9,2-2,2H15c-1.1,0-2,0.9-2,2v9.1C13,31.7,13.9,32.6,15,32.6z"/>
		<path class="st0" d="M63.1,0H47.5c-1.1,0-2,0.9-2,2v2.6c0,1.1,0.9,2,2,2h15.6c1.1,0,2-0.9,2-2V2C65.1,0.9,64.2,0,63.1,0z"/>
		<path class="st0" d="M76.1,13h-2.6c-1.1,0-2,0.9-2,2v9.1c0,1.1,0.9,2,2,2h2.6c1.1,0,2-0.9,2-2V15C78.1,13.9,77.2,13,76.1,13z"/>
		<path class="st0" d="M76.1,32.6h-2.6c-1.1,0-2,0.9-2,2v2.5c0,1.1,0.9,2,2,2h2.6c1.1,0,2-0.9,2-2v-2.6    C78.1,33.4,77.2,32.6,76.1,32.6z"/>
		<path class="st0" d="M52.1,34.5c0-1.1-0.9-2-2-2h-2.6c-1.1,0-2,0.9-2,2v22.1c0,1.1-0.9,2-2,2h-9.1c-1.1,0-2-0.9-2-2V34.5    c0-1.1,0.9-2,2-2H37c1.1,0,2-0.9,2-2v-2.6c0-1.1-0.9-2-2-2h-2.6c-1.1,0-2,0.9-2,2v2.6c0,1.1-0.9,2-2,2H28c-1.1,0-2,0.9-2,2v28.6    c0,1.1,0.9,2,2,2h15.6c1.1,0,2-0.9,2-2v-2.6c0-1.1,0.9-2,2-2h2.6c1.1,0,2-0.9,2-2L52.1,34.5L52.1,34.5z"/>
		<path class="st0" d="M63.1,13H47.5c-1.1,0-2,0.9-2,2v2.6c0,1.1,0.9,2,2,2h9.1c1.1,0,2,0.9,2,2v15.5c0,1.1,0.9,2,2,2h2.6    c1.1,0,2-0.9,2-2V15C65.1,13.9,64.2,13,63.1,13z"/>
		<path class="st0" d="M63.1,45.6h-2.6c-1.1,0-2,0.9-2,2v22.1c0,1.1-0.9,2-2,2H54c-1.1,0-2,0.9-2,2v2.6c0,1.1,0.9,2,2,2h2.6    c1.1,0,2-0.9,2-2v-2.6c0-1.1,0.9-2,2-2h2.6c1.1,0,2-0.9,2-2V47.5C65.1,46.5,64.2,45.6,63.1,45.6z"/>
		<path class="st0" d="M43.6,71.6H21.5c-1.1,0-2-0.9-2-2V47.5c0-1.1-0.9-2-2-2H15c-1.1,0-2,0.9-2,2v22.1c0,1.1,0.9,2,2,2h2.6    c1.1,0,2,0.9,2,2v2.6c0,1.1,0.9,2,2,2h22.1c1.1,0,2-0.9,2-2v-2.6C45.5,72.5,44.7,71.6,43.6,71.6z"/>
		<path class="st0" d="M30.6,84.6H15c-1.1,0-2,0.9-2,2v2.6c0,1.1,0.9,2,2,2h15.6c1.1,0,2-0.9,2-2v-2.6    C32.5,85.5,31.7,84.6,30.6,84.6z"/>
		<path class="st0" d="M4.6,58.6H2c-1.1,0-2,0.9-2,2v9.1c0,1.1,0.9,2,2,2h2.6c1.1,0,2-0.9,2-2v-9.1C6.5,59.5,5.6,58.6,4.6,58.6z"/>
	</g>
</g>
</svg>